<svg width="1952" height="460" viewBox="0 0 1952 460" fill="none" xmlns="http://www.w3.org/2000/svg">
<path d="M287.633 26.7786V50.4068H60.8025V163.822H287.633V189.025L262.429 215.804H35.5991L8.8205 189.025V26.7786L35.5991 0H262.429L287.633 26.7786Z" fill="#D9D9D9"/>
<path d="M665.683 25.2034V50.4068H438.853V162.247H613.701V75.6101H665.683V187.45L640.48 214.229H415.225L388.446 187.45V25.2034L415.225 0H640.48L665.683 25.2034Z" fill="#D9D9D9"/>
<path d="M766.497 214.229V75.6101H816.904V163.822H993.327V50.4068H766.497V0H1016.96L1043.73 28.3538V189.025L1016.96 214.229H766.497Z" fill="#D9D9D9"/>
<path d="M1144.55 214.229V0H1194.95V214.229H1144.55Z" fill="#D9D9D9"/>
<path d="M1295.77 214.229V0H1358.78L1516.3 151.22V0H1566.7V214.229H1503.7L1346.17 63.0084V214.229H1295.77Z" fill="#D9D9D9"/>
<path d="M1665.94 25.2034V51.982H1944.75V25.2034L1917.98 0H1691.15L1665.94 25.2034Z" fill="#D9D9D9"/>
<path d="M1665.94 187.45V75.6102H1716.35V162.247H1892.77V126.017H1791.96V75.6102H1943.18V187.45L1916.4 214.229H1691.15L1665.94 187.45Z" fill="#D9D9D9"/>
<path d="M246.072 283.077L126.769 458.824H175.517L266.597 325.41H276.86L367.94 458.824H415.405L298.668 283.077H246.072Z" fill="#9810FA"/>
<path d="M320.476 386.986H224.264L202.456 417.774H341.001L320.476 386.986Z" fill="#9810FA"/>
<path d="M489.809 283.077V325.411H696.344V345.936H489.809V458.825H532.142V386.986H641.182L686.081 458.825H737.394L686.081 386.986H716.869L737.394 366.461V306.168L716.869 283.077H489.809Z" fill="#9810FA"/>
<path d="M819.495 458.825V283.077H860.546V458.825H819.495Z" fill="#9810FA"/>
<path d="M1188.95 303.603V324.128H983.697V344.653H1167.14L1188.95 365.178V435.734L1167.14 458.825H963.172L942.646 435.734V416.491H1149.18V385.703H963.172L942.646 360.047V303.603L963.172 283.077H1167.14L1188.95 303.603Z" fill="#9810FA"/>
<path d="M1271.05 301.037V322.845H1496.83V301.037L1476.3 283.077H1291.58L1271.05 301.037Z" fill="#9810FA"/>
<path d="M1271.05 434.451V344.653H1413.44V384.42H1310.82V417.774H1496.83V434.451L1475.02 457.542H1292.86L1271.05 434.451Z" fill="#9810FA"/>
<path d="M1825.23 303.603V324.128H1619.98V344.653H1803.42L1825.23 365.178V435.734L1803.42 458.825H1599.45L1578.93 435.734V416.491H1785.46V385.703H1599.45L1578.93 360.047V303.603L1599.45 283.077H1803.42L1825.23 303.603Z" fill="#9810FA"/>
</svg>
