<svg width="1014" height="280" viewBox="0 0 1014 280" fill="none" xmlns="http://www.w3.org/2000/svg">
<g filter="url(#filter0_d_2012_132)">
<path d="M240.679 129.796V168.665L159.361 239.576" stroke="#6E11B0" stroke-width="3.47826" stroke-linecap="round"/>
</g>
<g filter="url(#filter1_d_2012_132)">
<path d="M78.0426 129.796V168.665L159.361 239.576" stroke="#6E11B0" stroke-width="3.47826" stroke-linecap="round"/>
</g>
<g filter="url(#filter2_d_2012_132)">
<path d="M71.3682 95.1021V111.366" stroke="#6E11B0" stroke-width="3.47826" stroke-linecap="round"/>
</g>
<g filter="url(#filter3_d_2012_132)">
<path d="M78.0427 95.1021V106.833L95.1715 149.492L100.362 152.158L102.438 160.157" stroke="#6E11B0" stroke-width="3.47826" stroke-linecap="round"/>
</g>
<g filter="url(#filter4_d_2012_132)">
<path d="M247.354 95.1021V111.366" stroke="#6E11B0" stroke-width="3.47826" stroke-linecap="round"/>
</g>
<g filter="url(#filter5_d_2012_132)">
<path d="M240.679 95.1021V106.833L223.55 149.492L218.36 152.158L216.284 160.157" stroke="#6E11B0" stroke-width="3.47826" stroke-linecap="round"/>
</g>
<g filter="url(#filter6_d_2012_132)">
<path d="M139.031 190.895V204.049C139.031 204.049 139.328 207.317 140.575 208.832C141.757 210.268 144.693 211.224 144.693 211.224H173C173 211.224 175.799 210.144 177.117 208.832C178.62 207.336 179.69 204.049 179.69 204.049V190.895" stroke="#6E11B0" stroke-width="3.47826" stroke-linecap="round"/>
</g>
<g filter="url(#filter7_d_2012_132)">
<path d="M200.02 158.367L194.462 182.296C194.462 182.296 194.119 185.885 192.794 187.613C191.04 189.902 186.124 190.804 186.124 190.804C186.124 190.804 181.713 191.008 178.898 190.804C170.983 190.228 159.361 185.229 159.361 185.229" stroke="#6E11B0" stroke-width="3.47826" stroke-linecap="round"/>
</g>
<g filter="url(#filter8_d_2012_132)">
<path d="M195.954 173.408C195.954 173.408 191.784 173.873 189.178 173.408C186.98 173.016 183.756 171.582 183.756 171.582" stroke="#6E11B0" stroke-width="3.47826" stroke-linecap="round"/>
</g>
<g filter="url(#filter9_d_2012_132)">
<path d="M193.611 182.573C193.611 182.573 185.311 181.626 180.251 180.29C175.985 179.164 169.871 176.664 169.871 176.664" stroke="#6E11B0" stroke-width="3.47826" stroke-linecap="round"/>
</g>
<g filter="url(#filter10_d_2012_132)">
<path d="M118.702 158.367L124.26 182.296C124.26 182.296 124.602 185.885 125.928 187.613C127.682 189.902 132.598 190.804 132.598 190.804C132.598 190.804 137.009 191.008 139.823 190.804C147.738 190.228 159.361 185.229 159.361 185.229" stroke="#6E11B0" stroke-width="3.47826" stroke-linecap="round"/>
</g>
<g filter="url(#filter11_d_2012_132)">
<path d="M122.768 173.408C122.768 173.408 126.938 173.873 129.544 173.408C131.742 173.016 134.965 171.582 134.965 171.582" stroke="#6E11B0" stroke-width="3.47826" stroke-linecap="round"/>
</g>
<g filter="url(#filter12_d_2012_132)">
<path d="M125.111 182.573C125.111 182.573 133.411 181.626 138.471 180.29C142.737 179.164 148.851 176.664 148.851 176.664" stroke="#6E11B0" stroke-width="3.47826" stroke-linecap="round"/>
</g>
<g filter="url(#filter13_d_2012_132)">
<path d="M159.361 172.354V184.552" stroke="#6E11B0" stroke-width="4.34783" stroke-linecap="round"/>
</g>
<g filter="url(#filter14_d_2012_132)">
<path d="M140.048 156.091C140.048 156.091 144.934 163.231 149.245 166.546C153.132 169.535 160.377 172.354 160.377 172.354" stroke="#6E11B0" stroke-width="4.34783" stroke-linecap="round"/>
</g>
<g filter="url(#filter15_d_2012_132)">
<path d="M179.69 156.091C179.69 156.091 174.805 163.231 170.494 166.546C166.606 169.535 159.361 172.354 159.361 172.354" stroke="#6E11B0" stroke-width="4.34783" stroke-linecap="round"/>
</g>
<g filter="url(#filter16_d_2012_132)">
<path d="M135.258 108.214L139.361 120.821L113.72 116.787L102.438 95.1021L135.258 108.214Z" fill="#030712"/>
<path d="M159.361 160.157C159.361 160.157 151.765 159.373 147.053 158.139C143.995 157.339 139.361 155.618 139.361 155.618V120.821M139.361 120.821L135.258 108.214L102.438 95.1021L113.72 116.787L139.361 120.821Z" stroke="#6E11B0" stroke-width="3.47826" stroke-linecap="round"/>
</g>
<g filter="url(#filter17_d_2012_132)">
<path d="M134.52 108.849L109.553 99.168C109.553 99.168 114.547 103.524 118.042 107.881C119.709 109.959 122.536 115.141 122.536 115.141C122.536 115.141 126.813 116.266 129.526 117.077C132.473 117.958 138.015 119.498 138.015 119.498C138.015 119.498 137.09 116.793 136.517 115.141C135.599 112.496 134.52 108.849 134.52 108.849Z" fill="#E9D4FF"/>
</g>
<g filter="url(#filter18_d_2012_132)">
<path d="M184.48 108.214L180.377 120.821L206.018 116.787L217.3 95.1021L184.48 108.214Z" fill="#020618"/>
<path d="M160.377 160.157C160.377 160.157 167.973 159.373 172.685 158.139C175.743 157.339 180.377 155.618 180.377 155.618V120.821M180.377 120.821L184.48 108.214L217.3 95.1021L206.018 116.787L180.377 120.821Z" stroke="#6E11B0" stroke-width="3.47826" stroke-linecap="round"/>
</g>
<g filter="url(#filter19_d_2012_132)">
<path d="M185.219 108.849L210.185 99.168C210.185 99.168 205.192 103.524 201.696 107.881C200.029 109.959 197.202 115.141 197.202 115.141C197.202 115.141 192.925 116.266 190.212 117.077C187.266 117.958 181.723 119.498 181.723 119.498C181.723 119.498 182.649 116.793 183.221 115.141C184.139 112.496 185.219 108.849 185.219 108.849Z" fill="#E9D4FF"/>
</g>
<g filter="url(#filter20_d_2012_132)">
<path d="M208.152 40H255.272V74.6103H281.338L250.259 149.78" stroke="#6E11B0" stroke-width="3.47826" stroke-linecap="round"/>
</g>
<g filter="url(#filter21_d_2012_132)">
<path d="M110.57 40H63.4499V74.6103H37.3835L68.4627 149.78" stroke="#6E11B0" stroke-width="3.47826" stroke-linecap="round"/>
</g>
<g filter="url(#filter22_d_2012_132)">
<path d="M148.598 113.186L142.021 103.804L118.702 40H159.361" stroke="#6E11B0" stroke-width="3.47826" stroke-linecap="round"/>
</g>
<g filter="url(#filter23_d_2012_132)">
<path d="M170.124 113.186L176.701 103.804L200.02 40H159.361" stroke="#6E11B0" stroke-width="3.47826" stroke-linecap="round"/>
</g>
<g filter="url(#filter24_d_2012_132)">
<path d="M103.565 45.734H69.9109L85.6499 80.6591L117.26 40" stroke="#6E11B0" stroke-width="3.47826" stroke-linecap="round"/>
</g>
<g filter="url(#filter25_d_2012_132)">
<path d="M215.303 45.7637H248.956L233.218 80.8696L201.608 40" stroke="#6E11B0" stroke-width="3.47826" stroke-linecap="round"/>
</g>
<path d="M408.727 71.0814V79.0945H331.802V117.557H408.727V126.104L400.18 135.186H323.255L314.173 126.104V71.0814L323.255 62H400.18L408.727 71.0814Z" fill="#FAF5FF"/>
<path d="M536.936 70.5472V79.0945H460.011V117.023H519.307V87.6417H536.936V125.57L528.388 134.651H451.998L442.916 125.57V70.5472L451.998 62H528.388L536.936 70.5472Z" fill="#FAF5FF"/>
<path d="M571.125 134.651V87.6417H588.219V117.557H648.05V79.0945H571.125V62H656.063L665.144 71.6156V126.104L656.063 134.651H571.125Z" fill="#FAF5FF"/>
<path d="M699.333 134.651V62H716.428V134.651H699.333Z" fill="#FAF5FF"/>
<path d="M750.617 134.651V62H771.985L825.405 113.283V62H842.499V134.651H821.131L767.711 83.3681V134.651H750.617Z" fill="#FAF5FF"/>
<path d="M876.154 70.5472V79.6287H970.708V70.5472L961.626 62H884.701L876.154 70.5472Z" fill="#FAF5FF"/>
<path d="M876.154 125.57V87.6417H893.248V117.023H953.079V104.736H918.89V87.6417H970.173V125.57L961.092 134.651H884.701L876.154 125.57Z" fill="#FAF5FF"/>
<path d="M394.633 158L354.173 217.601H370.705L401.593 172.356H405.074L435.962 217.601H452.059L412.47 158H394.633Z" fill="#9810FA"/>
<path d="M419.865 193.239H387.237L379.841 203.68H426.826L419.865 193.239Z" fill="#9810FA"/>
<path d="M477.291 158V172.356H547.334V179.317H477.291V217.601H491.648V193.239H528.627L543.853 217.601H561.255L543.853 193.239H554.294L561.255 186.278V165.831L554.294 158H477.291Z" fill="#9810FA"/>
<path d="M589.098 217.601V158H603.019V217.601H589.098Z" fill="#9810FA"/>
<path d="M714.391 164.961V171.921H644.784V178.882H706.995L714.391 185.843V209.77L706.995 217.601H637.823L630.862 209.77V203.245H700.904V192.804H637.823L630.862 184.103V164.961L637.823 158H706.995L714.391 164.961Z" fill="#9810FA"/>
<path d="M742.234 164.091V171.486H818.802V164.091L811.841 158H749.194L742.234 164.091Z" fill="#9810FA"/>
<path d="M742.234 209.335V178.882H790.524V192.369H755.72V203.68H818.802V209.335L811.406 217.166H749.63L742.234 209.335Z" fill="#9810FA"/>
<path d="M930.174 164.961V171.921H860.566V178.882H922.778L930.174 185.843V209.77L922.778 217.601H853.606L846.645 209.77V203.245H916.687V192.804H853.606L846.645 184.103V164.961L853.606 158H922.778L930.174 164.961Z" fill="#9810FA"/>
<defs>
<filter id="filter0_d_2012_132" x="122.839" y="93.2742" width="154.362" height="182.823" filterUnits="userSpaceOnUse" color-interpolation-filters="sRGB">
<feFlood flood-opacity="0" result="BackgroundImageFix"/>
<feColorMatrix in="SourceAlpha" type="matrix" values="0 0 0 0 0 0 0 0 0 0 0 0 0 0 0 0 0 0 127 0" result="hardAlpha"/>
<feOffset/>
<feGaussianBlur stdDeviation="17.3913"/>
<feComposite in2="hardAlpha" operator="out"/>
<feColorMatrix type="matrix" values="0 0 0 0 0.509804 0 0 0 0 0 0 0 0 0 0.858824 0 0 0 1 0"/>
<feBlend mode="normal" in2="BackgroundImageFix" result="effect1_dropShadow_2012_132"/>
<feBlend mode="normal" in="SourceGraphic" in2="effect1_dropShadow_2012_132" result="shape"/>
</filter>
<filter id="filter1_d_2012_132" x="41.5209" y="93.2742" width="154.362" height="182.823" filterUnits="userSpaceOnUse" color-interpolation-filters="sRGB">
<feFlood flood-opacity="0" result="BackgroundImageFix"/>
<feColorMatrix in="SourceAlpha" type="matrix" values="0 0 0 0 0 0 0 0 0 0 0 0 0 0 0 0 0 0 127 0" result="hardAlpha"/>
<feOffset/>
<feGaussianBlur stdDeviation="17.3913"/>
<feComposite in2="hardAlpha" operator="out"/>
<feColorMatrix type="matrix" values="0 0 0 0 0.509804 0 0 0 0 0 0 0 0 0 0.858824 0 0 0 1 0"/>
<feBlend mode="normal" in2="BackgroundImageFix" result="effect1_dropShadow_2012_132"/>
<feBlend mode="normal" in="SourceGraphic" in2="effect1_dropShadow_2012_132" result="shape"/>
</filter>
<filter id="filter2_d_2012_132" x="34.8464" y="58.5803" width="73.0435" height="89.3072" filterUnits="userSpaceOnUse" color-interpolation-filters="sRGB">
<feFlood flood-opacity="0" result="BackgroundImageFix"/>
<feColorMatrix in="SourceAlpha" type="matrix" values="0 0 0 0 0 0 0 0 0 0 0 0 0 0 0 0 0 0 127 0" result="hardAlpha"/>
<feOffset/>
<feGaussianBlur stdDeviation="17.3913"/>
<feComposite in2="hardAlpha" operator="out"/>
<feColorMatrix type="matrix" values="0 0 0 0 0.509804 0 0 0 0 0 0 0 0 0 0.858824 0 0 0 1 0"/>
<feBlend mode="normal" in2="BackgroundImageFix" result="effect1_dropShadow_2012_132"/>
<feBlend mode="normal" in="SourceGraphic" in2="effect1_dropShadow_2012_132" result="shape"/>
</filter>
<filter id="filter3_d_2012_132" x="41.521" y="58.5803" width="97.4394" height="138.098" filterUnits="userSpaceOnUse" color-interpolation-filters="sRGB">
<feFlood flood-opacity="0" result="BackgroundImageFix"/>
<feColorMatrix in="SourceAlpha" type="matrix" values="0 0 0 0 0 0 0 0 0 0 0 0 0 0 0 0 0 0 127 0" result="hardAlpha"/>
<feOffset/>
<feGaussianBlur stdDeviation="17.3913"/>
<feComposite in2="hardAlpha" operator="out"/>
<feColorMatrix type="matrix" values="0 0 0 0 0.509804 0 0 0 0 0 0 0 0 0 0.858824 0 0 0 1 0"/>
<feBlend mode="normal" in2="BackgroundImageFix" result="effect1_dropShadow_2012_132"/>
<feBlend mode="normal" in="SourceGraphic" in2="effect1_dropShadow_2012_132" result="shape"/>
</filter>
<filter id="filter4_d_2012_132" x="210.832" y="58.5803" width="73.0435" height="89.3072" filterUnits="userSpaceOnUse" color-interpolation-filters="sRGB">
<feFlood flood-opacity="0" result="BackgroundImageFix"/>
<feColorMatrix in="SourceAlpha" type="matrix" values="0 0 0 0 0 0 0 0 0 0 0 0 0 0 0 0 0 0 127 0" result="hardAlpha"/>
<feOffset/>
<feGaussianBlur stdDeviation="17.3913"/>
<feComposite in2="hardAlpha" operator="out"/>
<feColorMatrix type="matrix" values="0 0 0 0 0.509804 0 0 0 0 0 0 0 0 0 0.858824 0 0 0 1 0"/>
<feBlend mode="normal" in2="BackgroundImageFix" result="effect1_dropShadow_2012_132"/>
<feBlend mode="normal" in="SourceGraphic" in2="effect1_dropShadow_2012_132" result="shape"/>
</filter>
<filter id="filter5_d_2012_132" x="179.762" y="58.5803" width="97.4394" height="138.098" filterUnits="userSpaceOnUse" color-interpolation-filters="sRGB">
<feFlood flood-opacity="0" result="BackgroundImageFix"/>
<feColorMatrix in="SourceAlpha" type="matrix" values="0 0 0 0 0 0 0 0 0 0 0 0 0 0 0 0 0 0 127 0" result="hardAlpha"/>
<feOffset/>
<feGaussianBlur stdDeviation="17.3913"/>
<feComposite in2="hardAlpha" operator="out"/>
<feColorMatrix type="matrix" values="0 0 0 0 0.509804 0 0 0 0 0 0 0 0 0 0.858824 0 0 0 1 0"/>
<feBlend mode="normal" in2="BackgroundImageFix" result="effect1_dropShadow_2012_132"/>
<feBlend mode="normal" in="SourceGraphic" in2="effect1_dropShadow_2012_132" result="shape"/>
</filter>
<filter id="filter6_d_2012_132" x="102.51" y="154.373" width="113.703" height="93.373" filterUnits="userSpaceOnUse" color-interpolation-filters="sRGB">
<feFlood flood-opacity="0" result="BackgroundImageFix"/>
<feColorMatrix in="SourceAlpha" type="matrix" values="0 0 0 0 0 0 0 0 0 0 0 0 0 0 0 0 0 0 127 0" result="hardAlpha"/>
<feOffset/>
<feGaussianBlur stdDeviation="17.3913"/>
<feComposite in2="hardAlpha" operator="out"/>
<feColorMatrix type="matrix" values="0 0 0 0 0.509804 0 0 0 0 0 0 0 0 0 0.858824 0 0 0 1 0"/>
<feBlend mode="normal" in2="BackgroundImageFix" result="effect1_dropShadow_2012_132"/>
<feBlend mode="normal" in="SourceGraphic" in2="effect1_dropShadow_2012_132" result="shape"/>
</filter>
<filter id="filter7_d_2012_132" x="122.839" y="121.845" width="113.703" height="105.571" filterUnits="userSpaceOnUse" color-interpolation-filters="sRGB">
<feFlood flood-opacity="0" result="BackgroundImageFix"/>
<feColorMatrix in="SourceAlpha" type="matrix" values="0 0 0 0 0 0 0 0 0 0 0 0 0 0 0 0 0 0 127 0" result="hardAlpha"/>
<feOffset/>
<feGaussianBlur stdDeviation="17.3913"/>
<feComposite in2="hardAlpha" operator="out"/>
<feColorMatrix type="matrix" values="0 0 0 0 0.509804 0 0 0 0 0 0 0 0 0 0.858824 0 0 0 1 0"/>
<feBlend mode="normal" in2="BackgroundImageFix" result="effect1_dropShadow_2012_132"/>
<feBlend mode="normal" in="SourceGraphic" in2="effect1_dropShadow_2012_132" result="shape"/>
</filter>
<filter id="filter8_d_2012_132" x="147.234" y="135.059" width="85.2417" height="75.0769" filterUnits="userSpaceOnUse" color-interpolation-filters="sRGB">
<feFlood flood-opacity="0" result="BackgroundImageFix"/>
<feColorMatrix in="SourceAlpha" type="matrix" values="0 0 0 0 0 0 0 0 0 0 0 0 0 0 0 0 0 0 127 0" result="hardAlpha"/>
<feOffset/>
<feGaussianBlur stdDeviation="17.3913"/>
<feComposite in2="hardAlpha" operator="out"/>
<feColorMatrix type="matrix" values="0 0 0 0 0.509804 0 0 0 0 0 0 0 0 0 0.858824 0 0 0 1 0"/>
<feBlend mode="normal" in2="BackgroundImageFix" result="effect1_dropShadow_2012_132"/>
<feBlend mode="normal" in="SourceGraphic" in2="effect1_dropShadow_2012_132" result="shape"/>
</filter>
<filter id="filter9_d_2012_132" x="133.349" y="140.142" width="96.7834" height="78.9533" filterUnits="userSpaceOnUse" color-interpolation-filters="sRGB">
<feFlood flood-opacity="0" result="BackgroundImageFix"/>
<feColorMatrix in="SourceAlpha" type="matrix" values="0 0 0 0 0 0 0 0 0 0 0 0 0 0 0 0 0 0 127 0" result="hardAlpha"/>
<feOffset/>
<feGaussianBlur stdDeviation="17.3913"/>
<feComposite in2="hardAlpha" operator="out"/>
<feColorMatrix type="matrix" values="0 0 0 0 0.509804 0 0 0 0 0 0 0 0 0 0.858824 0 0 0 1 0"/>
<feBlend mode="normal" in2="BackgroundImageFix" result="effect1_dropShadow_2012_132"/>
<feBlend mode="normal" in="SourceGraphic" in2="effect1_dropShadow_2012_132" result="shape"/>
</filter>
<filter id="filter10_d_2012_132" x="82.1797" y="121.845" width="113.703" height="105.571" filterUnits="userSpaceOnUse" color-interpolation-filters="sRGB">
<feFlood flood-opacity="0" result="BackgroundImageFix"/>
<feColorMatrix in="SourceAlpha" type="matrix" values="0 0 0 0 0 0 0 0 0 0 0 0 0 0 0 0 0 0 127 0" result="hardAlpha"/>
<feOffset/>
<feGaussianBlur stdDeviation="17.3913"/>
<feComposite in2="hardAlpha" operator="out"/>
<feColorMatrix type="matrix" values="0 0 0 0 0.509804 0 0 0 0 0 0 0 0 0 0.858824 0 0 0 1 0"/>
<feBlend mode="normal" in2="BackgroundImageFix" result="effect1_dropShadow_2012_132"/>
<feBlend mode="normal" in="SourceGraphic" in2="effect1_dropShadow_2012_132" result="shape"/>
</filter>
<filter id="filter11_d_2012_132" x="86.2458" y="135.059" width="85.2417" height="75.0769" filterUnits="userSpaceOnUse" color-interpolation-filters="sRGB">
<feFlood flood-opacity="0" result="BackgroundImageFix"/>
<feColorMatrix in="SourceAlpha" type="matrix" values="0 0 0 0 0 0 0 0 0 0 0 0 0 0 0 0 0 0 127 0" result="hardAlpha"/>
<feOffset/>
<feGaussianBlur stdDeviation="17.3913"/>
<feComposite in2="hardAlpha" operator="out"/>
<feColorMatrix type="matrix" values="0 0 0 0 0.509804 0 0 0 0 0 0 0 0 0 0.858824 0 0 0 1 0"/>
<feBlend mode="normal" in2="BackgroundImageFix" result="effect1_dropShadow_2012_132"/>
<feBlend mode="normal" in="SourceGraphic" in2="effect1_dropShadow_2012_132" result="shape"/>
</filter>
<filter id="filter12_d_2012_132" x="88.5893" y="140.142" width="96.7834" height="78.9533" filterUnits="userSpaceOnUse" color-interpolation-filters="sRGB">
<feFlood flood-opacity="0" result="BackgroundImageFix"/>
<feColorMatrix in="SourceAlpha" type="matrix" values="0 0 0 0 0 0 0 0 0 0 0 0 0 0 0 0 0 0 127 0" result="hardAlpha"/>
<feOffset/>
<feGaussianBlur stdDeviation="17.3913"/>
<feComposite in2="hardAlpha" operator="out"/>
<feColorMatrix type="matrix" values="0 0 0 0 0.509804 0 0 0 0 0 0 0 0 0 0.858824 0 0 0 1 0"/>
<feBlend mode="normal" in2="BackgroundImageFix" result="effect1_dropShadow_2012_132"/>
<feBlend mode="normal" in="SourceGraphic" in2="effect1_dropShadow_2012_132" result="shape"/>
</filter>
<filter id="filter13_d_2012_132" x="122.404" y="135.398" width="73.9131" height="86.1107" filterUnits="userSpaceOnUse" color-interpolation-filters="sRGB">
<feFlood flood-opacity="0" result="BackgroundImageFix"/>
<feColorMatrix in="SourceAlpha" type="matrix" values="0 0 0 0 0 0 0 0 0 0 0 0 0 0 0 0 0 0 127 0" result="hardAlpha"/>
<feOffset/>
<feGaussianBlur stdDeviation="17.3913"/>
<feComposite in2="hardAlpha" operator="out"/>
<feColorMatrix type="matrix" values="0 0 0 0 0.509804 0 0 0 0 0 0 0 0 0 0.858824 0 0 0 1 0"/>
<feBlend mode="normal" in2="BackgroundImageFix" result="effect1_dropShadow_2012_132"/>
<feBlend mode="normal" in="SourceGraphic" in2="effect1_dropShadow_2012_132" result="shape"/>
</filter>
<filter id="filter14_d_2012_132" x="103.091" y="119.134" width="94.2433" height="90.1775" filterUnits="userSpaceOnUse" color-interpolation-filters="sRGB">
<feFlood flood-opacity="0" result="BackgroundImageFix"/>
<feColorMatrix in="SourceAlpha" type="matrix" values="0 0 0 0 0 0 0 0 0 0 0 0 0 0 0 0 0 0 127 0" result="hardAlpha"/>
<feOffset/>
<feGaussianBlur stdDeviation="17.3913"/>
<feComposite in2="hardAlpha" operator="out"/>
<feColorMatrix type="matrix" values="0 0 0 0 0.509804 0 0 0 0 0 0 0 0 0 0.858824 0 0 0 1 0"/>
<feBlend mode="normal" in2="BackgroundImageFix" result="effect1_dropShadow_2012_132"/>
<feBlend mode="normal" in="SourceGraphic" in2="effect1_dropShadow_2012_132" result="shape"/>
</filter>
<filter id="filter15_d_2012_132" x="122.404" y="119.134" width="94.2433" height="90.1775" filterUnits="userSpaceOnUse" color-interpolation-filters="sRGB">
<feFlood flood-opacity="0" result="BackgroundImageFix"/>
<feColorMatrix in="SourceAlpha" type="matrix" values="0 0 0 0 0 0 0 0 0 0 0 0 0 0 0 0 0 0 127 0" result="hardAlpha"/>
<feOffset/>
<feGaussianBlur stdDeviation="17.3913"/>
<feComposite in2="hardAlpha" operator="out"/>
<feColorMatrix type="matrix" values="0 0 0 0 0.509804 0 0 0 0 0 0 0 0 0 0.858824 0 0 0 1 0"/>
<feBlend mode="normal" in2="BackgroundImageFix" result="effect1_dropShadow_2012_132"/>
<feBlend mode="normal" in="SourceGraphic" in2="effect1_dropShadow_2012_132" result="shape"/>
</filter>
<filter id="filter16_d_2012_132" x="63.9507" y="56.9666" width="131.932" height="139.712" filterUnits="userSpaceOnUse" color-interpolation-filters="sRGB">
<feFlood flood-opacity="0" result="BackgroundImageFix"/>
<feColorMatrix in="SourceAlpha" type="matrix" values="0 0 0 0 0 0 0 0 0 0 0 0 0 0 0 0 0 0 127 0" result="hardAlpha"/>
<feOffset/>
<feGaussianBlur stdDeviation="17.3913"/>
<feComposite in2="hardAlpha" operator="out"/>
<feColorMatrix type="matrix" values="0 0 0 0 0.509804 0 0 0 0 0 0 0 0 0 0.858824 0 0 0 1 0"/>
<feBlend mode="normal" in2="BackgroundImageFix" result="effect1_dropShadow_2012_132"/>
<feBlend mode="normal" in="SourceGraphic" in2="effect1_dropShadow_2012_132" result="shape"/>
</filter>
<filter id="filter17_d_2012_132" x="93.2898" y="82.9043" width="60.9887" height="52.8569" filterUnits="userSpaceOnUse" color-interpolation-filters="sRGB">
<feFlood flood-opacity="0" result="BackgroundImageFix"/>
<feColorMatrix in="SourceAlpha" type="matrix" values="0 0 0 0 0 0 0 0 0 0 0 0 0 0 0 0 0 0 127 0" result="hardAlpha"/>
<feOffset/>
<feGaussianBlur stdDeviation="8.13182"/>
<feComposite in2="hardAlpha" operator="out"/>
<feColorMatrix type="matrix" values="0 0 0 0 0.642106 0 0 0 0 0.282914 0 0 0 0 0.865385 0 0 0 1 0"/>
<feBlend mode="normal" in2="BackgroundImageFix" result="effect1_dropShadow_2012_132"/>
<feBlend mode="normal" in="SourceGraphic" in2="effect1_dropShadow_2012_132" result="shape"/>
</filter>
<filter id="filter18_d_2012_132" x="123.856" y="56.9666" width="131.932" height="139.712" filterUnits="userSpaceOnUse" color-interpolation-filters="sRGB">
<feFlood flood-opacity="0" result="BackgroundImageFix"/>
<feColorMatrix in="SourceAlpha" type="matrix" values="0 0 0 0 0 0 0 0 0 0 0 0 0 0 0 0 0 0 127 0" result="hardAlpha"/>
<feOffset/>
<feGaussianBlur stdDeviation="17.3913"/>
<feComposite in2="hardAlpha" operator="out"/>
<feColorMatrix type="matrix" values="0 0 0 0 0.509804 0 0 0 0 0 0 0 0 0 0.858824 0 0 0 1 0"/>
<feBlend mode="normal" in2="BackgroundImageFix" result="effect1_dropShadow_2012_132"/>
<feBlend mode="normal" in="SourceGraphic" in2="effect1_dropShadow_2012_132" result="shape"/>
</filter>
<filter id="filter19_d_2012_132" x="165.46" y="82.9043" width="60.9887" height="52.8569" filterUnits="userSpaceOnUse" color-interpolation-filters="sRGB">
<feFlood flood-opacity="0" result="BackgroundImageFix"/>
<feColorMatrix in="SourceAlpha" type="matrix" values="0 0 0 0 0 0 0 0 0 0 0 0 0 0 0 0 0 0 127 0" result="hardAlpha"/>
<feOffset/>
<feGaussianBlur stdDeviation="8.13182"/>
<feComposite in2="hardAlpha" operator="out"/>
<feColorMatrix type="matrix" values="0 0 0 0 0.642106 0 0 0 0 0.282914 0 0 0 0 0.865385 0 0 0 1 0"/>
<feBlend mode="normal" in2="BackgroundImageFix" result="effect1_dropShadow_2012_132"/>
<feBlend mode="normal" in="SourceGraphic" in2="effect1_dropShadow_2012_132" result="shape"/>
</filter>
<filter id="filter20_d_2012_132" x="171.63" y="3.47826" width="147.092" height="182.824" filterUnits="userSpaceOnUse" color-interpolation-filters="sRGB">
<feFlood flood-opacity="0" result="BackgroundImageFix"/>
<feColorMatrix in="SourceAlpha" type="matrix" values="0 0 0 0 0 0 0 0 0 0 0 0 0 0 0 0 0 0 127 0" result="hardAlpha"/>
<feOffset/>
<feGaussianBlur stdDeviation="17.3913"/>
<feComposite in2="hardAlpha" operator="out"/>
<feColorMatrix type="matrix" values="0 0 0 0 0.509804 0 0 0 0 0 0 0 0 0 0.858824 0 0 0 1 0"/>
<feBlend mode="normal" in2="BackgroundImageFix" result="effect1_dropShadow_2012_132"/>
<feBlend mode="normal" in="SourceGraphic" in2="effect1_dropShadow_2012_132" result="shape"/>
</filter>
<filter id="filter21_d_2012_132" x="-1.52588e-05" y="3.47826" width="147.092" height="182.824" filterUnits="userSpaceOnUse" color-interpolation-filters="sRGB">
<feFlood flood-opacity="0" result="BackgroundImageFix"/>
<feColorMatrix in="SourceAlpha" type="matrix" values="0 0 0 0 0 0 0 0 0 0 0 0 0 0 0 0 0 0 127 0" result="hardAlpha"/>
<feOffset/>
<feGaussianBlur stdDeviation="17.3913"/>
<feComposite in2="hardAlpha" operator="out"/>
<feColorMatrix type="matrix" values="0 0 0 0 0.509804 0 0 0 0 0 0 0 0 0 0.858824 0 0 0 1 0"/>
<feBlend mode="normal" in2="BackgroundImageFix" result="effect1_dropShadow_2012_132"/>
<feBlend mode="normal" in="SourceGraphic" in2="effect1_dropShadow_2012_132" result="shape"/>
</filter>
<filter id="filter22_d_2012_132" x="81.4319" y="3.47826" width="114.451" height="146.23" filterUnits="userSpaceOnUse" color-interpolation-filters="sRGB">
<feFlood flood-opacity="0" result="BackgroundImageFix"/>
<feColorMatrix in="SourceAlpha" type="matrix" values="0 0 0 0 0 0 0 0 0 0 0 0 0 0 0 0 0 0 127 0" result="hardAlpha"/>
<feOffset/>
<feGaussianBlur stdDeviation="17.3913"/>
<feComposite in2="hardAlpha" operator="out"/>
<feColorMatrix type="matrix" values="0 0 0 0 0.509804 0 0 0 0 0 0 0 0 0 0.858824 0 0 0 1 0"/>
<feBlend mode="normal" in2="BackgroundImageFix" result="effect1_dropShadow_2012_132"/>
<feBlend mode="normal" in="SourceGraphic" in2="effect1_dropShadow_2012_132" result="shape"/>
</filter>
<filter id="filter23_d_2012_132" x="122.839" y="3.47826" width="114.451" height="146.23" filterUnits="userSpaceOnUse" color-interpolation-filters="sRGB">
<feFlood flood-opacity="0" result="BackgroundImageFix"/>
<feColorMatrix in="SourceAlpha" type="matrix" values="0 0 0 0 0 0 0 0 0 0 0 0 0 0 0 0 0 0 127 0" result="hardAlpha"/>
<feOffset/>
<feGaussianBlur stdDeviation="17.3913"/>
<feComposite in2="hardAlpha" operator="out"/>
<feColorMatrix type="matrix" values="0 0 0 0 0.509804 0 0 0 0 0 0 0 0 0 0.858824 0 0 0 1 0"/>
<feBlend mode="normal" in2="BackgroundImageFix" result="effect1_dropShadow_2012_132"/>
<feBlend mode="normal" in="SourceGraphic" in2="effect1_dropShadow_2012_132" result="shape"/>
</filter>
<filter id="filter24_d_2012_132" x="32.437" y="3.4782" width="121.345" height="115.311" filterUnits="userSpaceOnUse" color-interpolation-filters="sRGB">
<feFlood flood-opacity="0" result="BackgroundImageFix"/>
<feColorMatrix in="SourceAlpha" type="matrix" values="0 0 0 0 0 0 0 0 0 0 0 0 0 0 0 0 0 0 127 0" result="hardAlpha"/>
<feOffset/>
<feGaussianBlur stdDeviation="17.3913"/>
<feComposite in2="hardAlpha" operator="out"/>
<feColorMatrix type="matrix" values="0 0 0 0 0.509804 0 0 0 0 0 0 0 0 0 0.858824 0 0 0 1 0"/>
<feBlend mode="normal" in2="BackgroundImageFix" result="effect1_dropShadow_2012_132"/>
<feBlend mode="normal" in="SourceGraphic" in2="effect1_dropShadow_2012_132" result="shape"/>
</filter>
<filter id="filter25_d_2012_132" x="165.087" y="3.4782" width="121.338" height="115.534" filterUnits="userSpaceOnUse" color-interpolation-filters="sRGB">
<feFlood flood-opacity="0" result="BackgroundImageFix"/>
<feColorMatrix in="SourceAlpha" type="matrix" values="0 0 0 0 0 0 0 0 0 0 0 0 0 0 0 0 0 0 127 0" result="hardAlpha"/>
<feOffset/>
<feGaussianBlur stdDeviation="17.3913"/>
<feComposite in2="hardAlpha" operator="out"/>
<feColorMatrix type="matrix" values="0 0 0 0 0.509804 0 0 0 0 0 0 0 0 0 0.858824 0 0 0 1 0"/>
<feBlend mode="normal" in2="BackgroundImageFix" result="effect1_dropShadow_2012_132"/>
<feBlend mode="normal" in="SourceGraphic" in2="effect1_dropShadow_2012_132" result="shape"/>
</filter>
</defs>
</svg>
