<svg width="3693" height="216" viewBox="0 0 3693 216" fill="none" xmlns="http://www.w3.org/2000/svg">
<path d="M278.812 26.7786V50.4068H51.982V163.822H278.812V189.025L253.609 215.804H26.7786L0 189.025V26.7786L26.7786 0H253.609L278.812 26.7786Z" fill="#FAF5FF"/>
<path d="M619.237 25.2034V50.4068H392.407V162.247H567.255V75.6101H619.237V187.45L594.034 214.229H368.779L342 187.45V25.2034L368.779 0H594.034L619.237 25.2034Z" fill="#FAF5FF"/>
<path d="M684 214.229V75.6101H734.407V163.822H910.83V50.4068H684V0H934.459L961.237 28.3538V189.025L934.459 214.229H684Z" fill="#FAF5FF"/>
<path d="M1026 214.229V0H1076.41V214.229H1026Z" fill="#FAF5FF"/>
<path d="M1140 214.229V0H1203.01L1360.53 151.22V0H1410.94V214.229H1347.93L1190.41 63.0084V214.229H1140Z" fill="#FAF5FF"/>
<path d="M1474 25.2034V51.982H1752.81V25.2034L1726.03 0H1499.2L1474 25.2034Z" fill="#FAF5FF"/>
<path d="M1474 187.45V75.6101H1524.41V162.247H1700.83V126.017H1600.02V75.6101H1751.24V187.45L1724.46 214.229H1499.2L1474 187.45Z" fill="#FAF5FF"/>
<path d="M1959.71 0L1816 211.696H1874.72L1984.43 50.9925H1996.79L2106.5 211.696H2163.68L2023.06 0H1959.71Z" fill="#9810FA"/>
<path d="M2049.33 125.164H1933.44L1907.17 162.249H2074.05L2049.33 125.164Z" fill="#9810FA"/>
<path d="M2223.77 0V50.9925H2472.55V75.7161H2223.77V211.696H2274.76V125.163H2406.11L2460.19 211.696H2522L2460.19 125.163H2497.28L2522 100.44V27.8141L2497.28 0H2223.77Z" fill="#9810FA"/>
<path d="M2586 211.696V0H2635.45V211.696H2586Z" fill="#9810FA"/>
<path d="M2996.68 24.7236V49.4472H2749.45V74.1709H2970.41L2996.68 98.8945V183.882L2970.41 211.696H2724.72L2700 183.882V160.704H2948.78V123.618H2724.72L2700 92.7136V24.7236L2724.72 0H2970.41L2996.68 24.7236Z" fill="#9810FA"/>
<path d="M3060 21.6332V47.902H3331.96V21.6332L3307.24 0H3084.72L3060 21.6332Z" fill="#9810FA"/>
<path d="M3060 182.337V74.1707H3231.52V122.073H3107.9V162.249H3331.96V182.337L3305.69 210.151H3086.27L3060 182.337Z" fill="#9810FA"/>
<path d="M3692.68 24.7236V49.4472H3445.45V74.1709H3666.41L3692.68 98.8945V183.882L3666.41 211.696H3420.72L3396 183.882V160.704H3644.78V123.618H3420.72L3396 92.7136V24.7236L3420.72 0H3666.41L3692.68 24.7236Z" fill="#9810FA"/>
</svg>
